<svg id="Group_845" data-name="Group 845" xmlns="http://www.w3.org/2000/svg" width="187.904" height="56.003" viewBox="0 0 187.904 56.003">
  <path id="Path_996" data-name="Path 996" d="M180.643,632.161H7.265A7.192,7.192,0,0,1,0,625.042V583.276a7.192,7.192,0,0,1,7.263-7.118H180.643a7.192,7.192,0,0,1,7.263,7.118v41.766a7.192,7.192,0,0,1-7.263,7.119" transform="translate(-0.002 -576.158)"/>
  <path id="Path_997" data-name="Path 997" d="M126.174,730.242c-3.05,5.292-1.111,13.324,2.261,18.194,1.684,2.435,3.388,4.62,5.723,4.62.044,0,.088,0,.133,0a7.055,7.055,0,0,0,2.656-.707,7.273,7.273,0,0,1,3.146-.746,6.843,6.843,0,0,1,2.994.721,6.344,6.344,0,0,0,2.869.688c2.629-.049,4.244-2.407,5.669-4.488a19.881,19.881,0,0,0,2.484-5.087l.01-.032a.3.3,0,0,0-.157-.363l-.021-.009a7.537,7.537,0,0,1-4.568-6.9,7.758,7.758,0,0,1,3.666-6.486l.029-.018a.295.295,0,0,0,.084-.415,8.531,8.531,0,0,0-6.711-3.644,5.848,5.848,0,0,0-.585-.029,11.7,11.7,0,0,0-4.212,1.052,6.758,6.758,0,0,1-2.017.6,6.6,6.6,0,0,1-2.087-.61,10.119,10.119,0,0,0-3.679-.934h-.093a9.019,9.019,0,0,0-7.592,4.6" transform="translate(-109.087 -707.618)" fill="#fff"/>
  <path id="Path_998" data-name="Path 998" d="M247.016,657.036a8.235,8.235,0,0,0-5.437,2.79,7.716,7.716,0,0,0-1.954,5.722.3.3,0,0,0,.27.256c.126.01.254.015.382.015a6.969,6.969,0,0,0,5.133-2.633,8.135,8.135,0,0,0,1.912-5.886.3.3,0,0,0-.306-.263" transform="translate(-209.676 -647.181)" fill="#fff"/>
  <path id="Path_999" data-name="Path 999" d="M470.932,680.6h3.536a5.173,5.173,0,0,1,2.47.574,4.2,4.2,0,0,1,1.678,1.589,4.724,4.724,0,0,1,0,4.608,4.2,4.2,0,0,1-1.678,1.589,5.175,5.175,0,0,1-2.47.574h-3.536Zm3.484,8.347a4.661,4.661,0,0,0,2.183-.491,3.514,3.514,0,0,0,1.455-1.372,4.239,4.239,0,0,0,0-4.033,3.517,3.517,0,0,0-1.455-1.372,4.667,4.667,0,0,0-2.183-.491h-2.834v7.76Z" transform="translate(-412.157 -667.878)" fill="#fff"/>
  <path id="Path_1000" data-name="Path 1000" d="M549.522,704.719a3.123,3.123,0,0,1-1.193-1.206,3.714,3.714,0,0,1,0-3.484,3.126,3.126,0,0,1,1.193-1.206,3.562,3.562,0,0,1,3.408,0,3.128,3.128,0,0,1,1.193,1.206,3.714,3.714,0,0,1,0,3.484,3.125,3.125,0,0,1-1.193,1.206,3.562,3.562,0,0,1-3.408,0m3.076-.5a2.565,2.565,0,0,0,.957-1,3.191,3.191,0,0,0,0-2.91,2.566,2.566,0,0,0-.957-1,2.812,2.812,0,0,0-2.744,0,2.566,2.566,0,0,0-.957,1,3.192,3.192,0,0,0,0,2.91,2.565,2.565,0,0,0,.957,1,2.811,2.811,0,0,0,2.744,0" transform="translate(-479.514 -683.479)" fill="#fff"/>
  <path id="Path_1001" data-name="Path 1001" d="M616.492,698.8l-2.527,6.663h-.6l-2.246-5.782-2.259,5.782h-.587l-2.527-6.663h.613l2.221,5.948,2.272-5.948h.549l2.259,5.935,2.246-5.935Z" transform="translate(-530.145 -683.837)" fill="#fff"/>
  <path id="Path_1002" data-name="Path 1002" d="M708.9,699.116a2.833,2.833,0,0,1,.727,2.093V705.1h-.638V701.26a2.365,2.365,0,0,0-.568-1.71,2.108,2.108,0,0,0-1.589-.587,2.45,2.45,0,0,0-1.851.7,2.607,2.607,0,0,0-.676,1.889V705.1h-.638v-6.663h.613v1.442a2.534,2.534,0,0,1,1.027-1.1,3.165,3.165,0,0,1,1.615-.4,2.673,2.673,0,0,1,1.978.728" transform="translate(-615.841 -683.478)" fill="#fff"/>
  <rect id="Rectangle_573" data-name="Rectangle 573" width="0.638" height="9.471" transform="translate(96.409 12.2)" fill="#fff"/>
  <path id="Path_1003" data-name="Path 1003" d="M794.926,704.719a3.122,3.122,0,0,1-1.194-1.206,3.715,3.715,0,0,1,0-3.484,3.124,3.124,0,0,1,1.194-1.206,3.562,3.562,0,0,1,3.408,0,3.127,3.127,0,0,1,1.193,1.206,3.714,3.714,0,0,1,0,3.484,3.125,3.125,0,0,1-1.193,1.206,3.562,3.562,0,0,1-3.408,0m3.076-.5a2.567,2.567,0,0,0,.957-1,3.192,3.192,0,0,0,0-2.91,2.568,2.568,0,0,0-.957-1,2.813,2.813,0,0,0-2.744,0,2.563,2.563,0,0,0-.957,1,3.191,3.191,0,0,0,0,2.91,2.562,2.562,0,0,0,.957,1,2.812,2.812,0,0,0,2.744,0" transform="translate(-694.289 -683.479)" fill="#fff"/>
  <path id="Path_1004" data-name="Path 1004" d="M862.234,699.019a2.445,2.445,0,0,1,.664,1.857V705.1h-.613v-1.187a2.218,2.218,0,0,1-.932.913,3.091,3.091,0,0,1-1.468.325,2.7,2.7,0,0,1-1.755-.523,1.81,1.81,0,0,1-.051-2.725,2.851,2.851,0,0,1,1.9-.517h2.284v-.536a1.876,1.876,0,0,0-.5-1.417,2.045,2.045,0,0,0-1.474-.485,3.557,3.557,0,0,0-1.27.23,3.191,3.191,0,0,0-1.028.613l-.319-.459a3.551,3.551,0,0,1,1.2-.7,4.36,4.36,0,0,1,1.468-.249,2.652,2.652,0,0,1,1.9.632m-.849,5.227a2.33,2.33,0,0,0,.874-1.11v-1.251h-2.272a2.261,2.261,0,0,0-1.423.357,1.2,1.2,0,0,0-.44.983,1.23,1.23,0,0,0,.485,1.028,2.18,2.18,0,0,0,1.366.376,2.505,2.505,0,0,0,1.41-.383" transform="translate(-750.465 -683.478)" fill="#fff"/>
  <path id="Path_1005" data-name="Path 1005" d="M922.8,676.31v9.471h-.625v-1.57a2.86,2.86,0,0,1-1.111,1.2,3.13,3.13,0,0,1-1.621.421,3.313,3.313,0,0,1-1.685-.434,3.1,3.1,0,0,1-1.18-1.2,3.522,3.522,0,0,1-.428-1.748,3.56,3.56,0,0,1,.428-1.755,3.05,3.05,0,0,1,1.18-1.2,3.355,3.355,0,0,1,1.685-.428,3.073,3.073,0,0,1,1.6.421,3,3,0,0,1,1.117,1.174V676.31Zm-1.946,8.59a2.567,2.567,0,0,0,.957-1,3.192,3.192,0,0,0,0-2.91,2.57,2.57,0,0,0-.957-1,2.812,2.812,0,0,0-2.744,0,2.567,2.567,0,0,0-.957,1,3.191,3.191,0,0,0,0,2.91,2.564,2.564,0,0,0,.957,1,2.811,2.811,0,0,0,2.744,0" transform="translate(-801.81 -664.11)" fill="#fff"/>
  <path id="Path_1006" data-name="Path 1006" d="M1013.037,704.719a3.123,3.123,0,0,1-1.193-1.206,3.714,3.714,0,0,1,0-3.484,3.125,3.125,0,0,1,1.193-1.206,3.562,3.562,0,0,1,3.408,0,3.129,3.129,0,0,1,1.193,1.206,3.714,3.714,0,0,1,0,3.484,3.126,3.126,0,0,1-1.193,1.206,3.562,3.562,0,0,1-3.408,0m3.076-.5a2.566,2.566,0,0,0,.957-1,3.192,3.192,0,0,0,0-2.91,2.567,2.567,0,0,0-.957-1,2.812,2.812,0,0,0-2.744,0,2.563,2.563,0,0,0-.957,1,3.191,3.191,0,0,0,0,2.91,2.562,2.562,0,0,0,.957,1,2.811,2.811,0,0,0,2.744,0" transform="translate(-885.179 -683.479)" fill="#fff"/>
  <path id="Path_1007" data-name="Path 1007" d="M1085.839,699.116a2.833,2.833,0,0,1,.728,2.093V705.1h-.638V701.26a2.364,2.364,0,0,0-.568-1.71,2.108,2.108,0,0,0-1.589-.587,2.449,2.449,0,0,0-1.85.7,2.606,2.606,0,0,0-.677,1.889V705.1h-.638v-6.663h.613v1.442a2.536,2.536,0,0,1,1.028-1.1,3.166,3.166,0,0,1,1.614-.4,2.673,2.673,0,0,1,1.978.728" transform="translate(-945.738 -683.478)" fill="#fff"/>
  <path id="Path_1008" data-name="Path 1008" d="M1171.273,694.84a1.6,1.6,0,0,1-.606.351,2.392,2.392,0,0,1-.76.121,1.653,1.653,0,0,1-1.813-1.812v-4.352h-1.225V688.6h1.225v-1.455h.638V688.6h2.119v.549h-2.119v4.288a1.409,1.409,0,0,0,.313.989,1.2,1.2,0,0,0,.925.338,1.48,1.48,0,0,0,1.034-.37Z" transform="translate(-1021.235 -673.615)" fill="#fff"/>
  <path id="Path_1009" data-name="Path 1009" d="M1221.571,679.795a2.832,2.832,0,0,1,.728,2.093v3.893h-.638v-3.842a2.364,2.364,0,0,0-.568-1.71,2.108,2.108,0,0,0-1.589-.587,2.449,2.449,0,0,0-1.851.7,2.606,2.606,0,0,0-.677,1.889v3.548h-.638V676.31h.638v4.2a2.445,2.445,0,0,1,1.021-1.066,3.231,3.231,0,0,1,1.6-.377,2.673,2.673,0,0,1,1.978.728" transform="translate(-1064.547 -664.11)" fill="#fff"/>
  <path id="Path_1010" data-name="Path 1010" d="M1285.756,701.924h-5.731a2.784,2.784,0,0,0,.4,1.385,2.533,2.533,0,0,0,1,.938,3.012,3.012,0,0,0,1.423.332,3.046,3.046,0,0,0,1.206-.236,2.345,2.345,0,0,0,.925-.7l.37.421a2.845,2.845,0,0,1-1.091.8,3.8,3.8,0,0,1-3.2-.153,3.144,3.144,0,0,1-1.219-1.2,3.439,3.439,0,0,1-.44-1.748,3.623,3.623,0,0,1,.415-1.742,3.06,3.06,0,0,1,1.142-1.206,3.3,3.3,0,0,1,3.261-.006,3.041,3.041,0,0,1,1.136,1.193,3.586,3.586,0,0,1,.415,1.736Zm-4.429-2.661a2.38,2.38,0,0,0-.9.881,2.865,2.865,0,0,0-.389,1.283h5.105a2.669,2.669,0,0,0-.383-1.276,2.48,2.48,0,0,0-2.17-1.2,2.553,2.553,0,0,0-1.264.313" transform="translate(-1119.734 -683.479)" fill="#fff"/>
  <path id="Path_1011" data-name="Path 1011" d="M462.074,828.083H454.44l-1.505,3.534h-2.923l6.871-15.268h2.792l6.893,15.268H463.6Zm-.938-2.225-2.879-6.674-2.857,6.674Z" transform="translate(-393.849 -787.192)" fill="#fff"/>
  <path id="Path_1012" data-name="Path 1012" d="M605.531,845.036a5.353,5.353,0,0,1,2.1,2.094,6.775,6.775,0,0,1,0,6.249,5.328,5.328,0,0,1-2.1,2.1,6.183,6.183,0,0,1-3.043.742,4.7,4.7,0,0,1-3.73-1.57V860.3h-2.727V844.425h2.6v1.527a4.216,4.216,0,0,1,1.668-1.243,5.636,5.636,0,0,1,2.192-.414,6.187,6.187,0,0,1,3.043.741m-.872,7.852a4.073,4.073,0,0,0,0-5.279,3.3,3.3,0,0,0-2.476-1,3.509,3.509,0,0,0-1.767.447,3.233,3.233,0,0,0-1.243,1.276,4.249,4.249,0,0,0,0,3.839,3.226,3.226,0,0,0,1.243,1.276,3.5,3.5,0,0,0,1.767.447,3.3,3.3,0,0,0,2.476-1" transform="translate(-521.644 -811.981)" fill="#fff"/>
  <path id="Path_1013" data-name="Path 1013" d="M725.351,845.036a5.352,5.352,0,0,1,2.1,2.094,6.776,6.776,0,0,1,0,6.249,5.327,5.327,0,0,1-2.1,2.1,6.183,6.183,0,0,1-3.043.742,4.7,4.7,0,0,1-3.73-1.57V860.3h-2.726V844.425h2.6v1.527a4.221,4.221,0,0,1,1.668-1.243,5.637,5.637,0,0,1,2.192-.414,6.187,6.187,0,0,1,3.043.741m-.873,7.852a4.074,4.074,0,0,0,0-5.279,3.3,3.3,0,0,0-2.476-1,3.51,3.51,0,0,0-1.767.447,3.235,3.235,0,0,0-1.243,1.276,4.25,4.25,0,0,0,0,3.839,3.228,3.228,0,0,0,1.243,1.276,3.505,3.505,0,0,0,1.767.447,3.3,3.3,0,0,0,2.476-1" transform="translate(-626.51 -811.981)" fill="#fff"/>
  <path id="Path_1014" data-name="Path 1014" d="M878.275,829.8a7.116,7.116,0,0,1-2.607-1.331l.982-2.2a7.716,7.716,0,0,0,2.3,1.211,8.36,8.36,0,0,0,2.737.469,4.728,4.728,0,0,0,2.541-.545,1.652,1.652,0,0,0,.84-1.439,1.394,1.394,0,0,0-.469-1.08,3.3,3.3,0,0,0-1.189-.665q-.72-.24-1.963-.545a22.839,22.839,0,0,1-2.825-.829,4.645,4.645,0,0,1-1.854-1.3A3.494,3.494,0,0,1,876,819.16a4.075,4.075,0,0,1,.687-2.3,4.646,4.646,0,0,1,2.072-1.647,8.394,8.394,0,0,1,3.392-.611,10.975,10.975,0,0,1,2.748.349,7.6,7.6,0,0,1,2.334,1l-.894,2.2a8.84,8.84,0,0,0-2.094-.894,7.836,7.836,0,0,0-2.116-.305,4.42,4.42,0,0,0-2.5.567,1.75,1.75,0,0,0-.818,1.505,1.36,1.36,0,0,0,.469,1.069,3.384,3.384,0,0,0,1.189.654q.72.241,1.963.545a20.671,20.671,0,0,1,2.792.818,4.79,4.79,0,0,1,1.865,1.3,3.422,3.422,0,0,1,.774,2.356,4.021,4.021,0,0,1-.687,2.29,4.672,4.672,0,0,1-2.083,1.636,8.479,8.479,0,0,1-3.4.611,11.662,11.662,0,0,1-3.414-.5" transform="translate(-766.381 -785.666)" fill="#fff"/>
  <path id="Path_1015" data-name="Path 1015" d="M989.892,838.321a3.211,3.211,0,0,1-1.167.589,5.26,5.26,0,0,1-1.451.2,4.114,4.114,0,0,1-2.966-1,3.86,3.86,0,0,1-1.047-2.923v-5.605h-1.919v-2.181h1.919v-2.661h2.727v2.661h3.119v2.181h-3.119v5.54a1.842,1.842,0,0,0,.414,1.3,1.554,1.554,0,0,0,1.2.447,2.394,2.394,0,0,0,1.527-.48Z" transform="translate(-858.864 -794.54)" fill="#fff"/>
  <path id="Path_1016" data-name="Path 1016" d="M1059.984,855.462a5.563,5.563,0,0,1-2.214-2.127,6.359,6.359,0,0,1,0-6.162,5.59,5.59,0,0,1,2.214-2.116,7.07,7.07,0,0,1,6.391,0,5.6,5.6,0,0,1,2.214,2.116,6.36,6.36,0,0,1,0,6.162,5.567,5.567,0,0,1-2.214,2.127,7.069,7.069,0,0,1-6.391,0m5.671-2.574a4.04,4.04,0,0,0,0-5.279,3.333,3.333,0,0,0-2.487-1,3.3,3.3,0,0,0-2.475,1,4.072,4.072,0,0,0,0,5.279,3.294,3.294,0,0,0,2.475,1,3.331,3.331,0,0,0,2.487-1" transform="translate(-925.059 -811.677)" fill="#fff"/>
  <path id="Path_1017" data-name="Path 1017" d="M1184.058,844.294v2.6a3.449,3.449,0,0,0-.632-.066,3.292,3.292,0,0,0-2.486.927,3.7,3.7,0,0,0-.895,2.672v5.649h-2.726V844.425h2.6v1.7q1.177-1.832,4.144-1.832" transform="translate(-1030.38 -811.674)" fill="#fff"/>
  <path id="Path_1018" data-name="Path 1018" d="M1253.113,851.121h-9.139a3.168,3.168,0,0,0,1.254,2.039,4.113,4.113,0,0,0,2.519.752,4.245,4.245,0,0,0,3.163-1.265l1.461,1.679a4.921,4.921,0,0,1-1.985,1.418,7.866,7.866,0,0,1-6.085-.284,5.493,5.493,0,0,1-2.258-2.127,6,6,0,0,1-.8-3.086,6.094,6.094,0,0,1,.774-3.065,5.493,5.493,0,0,1,2.148-2.127,6.269,6.269,0,0,1,3.1-.764,6.11,6.11,0,0,1,3.043.753,5.334,5.334,0,0,1,2.094,2.116,6.418,6.418,0,0,1,.752,3.152q0,.284-.044.807m-8.06-3.872a3.259,3.259,0,0,0-1.1,2.061h6.609a3.216,3.216,0,0,0-1.069-2.05,3.251,3.251,0,0,0-2.225-.785,3.29,3.29,0,0,0-2.214.774" transform="translate(-1086.345 -811.677)" fill="#fff"/>
</svg>
