<svg width="288" height="288" viewBox="0 0 288 288" fill="none" xmlns="http://www.w3.org/2000/svg">
<g clip-path="url(#clip0_275_106)">
<path d="M62.743 155.437V253.857C62.743 259.724 67.484 264.462 73.348 264.462C79.202 264.462 83.953 259.724 83.953 253.857V155.437C83.953 149.581 79.202 144.832 73.348 144.832C67.484 144.832 62.743 149.576 62.743 155.437Z" fill="url(#paint0_linear_275_106)"/>
<path d="M29.456 264.582H52.807V147.732C52.871 147.172 52.973 146.613 52.973 146.039C52.973 95.6272 93.663 54.6192 143.671 54.6192C193.673 54.6192 234.363 95.6272 234.363 146.039C234.363 146.81 234.476 147.557 234.591 148.302V264.582H257.945C274.199 264.582 287.387 250.942 287.387 234.113V173.177C287.387 159.299 278.398 147.607 266.126 143.928C264.997 76.9572 210.518 22.8042 143.676 22.8042C76.816 22.8042 22.329 76.9622 21.211 143.954C8.956 147.638 0 159.32 0 173.187V234.113C0 250.932 13.187 264.582 29.456 264.582Z" fill="url(#paint1_linear_275_106)"/>
<path d="M203.454 155.437V253.857C203.454 259.724 208.202 264.462 214.058 264.462C219.914 264.462 224.662 259.724 224.662 253.857V155.437C224.662 149.581 219.914 144.832 214.058 144.832C208.191 144.832 203.454 149.576 203.454 155.437Z" fill="url(#paint2_linear_275_106)"/>
</g>
<defs>
<linearGradient id="paint0_linear_275_106" x1="73.4814" y1="238.445" x2="80.0917" y2="130.233" gradientUnits="userSpaceOnUse">
<stop stop-color="#005CBA"/>
<stop offset="1" stop-color="#1F854B"/>
</linearGradient>
<linearGradient id="paint1_linear_275_106" x1="145.5" y1="212" x2="147.5" y2="-7.5" gradientUnits="userSpaceOnUse">
<stop stop-color="#005CBA"/>
<stop offset="1" stop-color="#1F854B"/>
</linearGradient>
<linearGradient id="paint2_linear_275_106" x1="214.191" y1="238.445" x2="220.802" y2="130.233" gradientUnits="userSpaceOnUse">
<stop stop-color="#005CBA"/>
<stop offset="1" stop-color="#1F854B"/>
</linearGradient>
<clipPath id="clip0_275_106">
<rect width="287.386" height="287.386" fill="white"/>
</clipPath>
</defs>
</svg>
