<svg width="512" height="512" viewBox="0 0 512 512" fill="none" xmlns="http://www.w3.org/2000/svg">
<g clip-path="url(#clip0_276_112)">
<path d="M511.344 274.266C511.77 268.231 512 262.143 512 256C512 114.615 397.385 0 256 0C114.615 0 0 114.615 0 256C0 373.769 79.53 472.949 187.809 502.801L511.344 274.266Z" fill="url(#paint0_linear_276_112)"/>
<path d="M511.344 274.266L314.991 77.9131L119.096 434.087L187.81 502.801C209.522 508.787 232.385 512 256 512C391.243 512 501.976 407.125 511.344 274.266Z" fill="url(#paint1_linear_276_112)"/>
<path d="M274.922 304.094L256.184 92H143V285.651L274.922 304.094Z" fill="white"/>
<path d="M369.848 285.651V156.55L323.74 138.107L305.297 92H256.184L256.479 304.094L369.848 285.651Z" fill="#E8E6E6"/>
<path d="M305.297 156.55V92L369.848 156.55H305.297Z" fill="white"/>
<path d="M369.848 285.65H143V387.087H369.848V285.65Z" fill="#FC0F1A"/>
<path d="M203.082 313C216.629 313 224.423 319.659 224.423 331.465C224.423 343.877 216.628 351.066 203.082 351.066H193.471V365.975H180V313H203.082ZM193.471 340.471H202.401C208.305 340.471 211.709 337.519 211.709 331.919C211.709 326.394 208.303 323.595 202.401 323.595H193.471V340.471Z" fill="white"/>
<path d="M256.139 313C272.788 313 284.291 323.746 284.291 339.487C284.291 355.153 272.636 365.975 255.608 365.975H233.358V313H256.139ZM246.83 355.228H256.441C264.69 355.228 270.592 348.871 270.592 339.563C270.592 330.179 264.387 323.746 255.835 323.746H246.829V355.228H246.83Z" fill="white"/>
<path d="M306.774 323.595V335.855H330.537V346.451H306.774V365.976H293.303V313.001H332.58V323.596H306.774V323.595Z" fill="white"/>
</g>
<defs>
<linearGradient id="paint0_linear_276_112" x1="256" y1="0" x2="256" y2="502.801" gradientUnits="userSpaceOnUse">
<stop stop-color="#005CBA"/>
<stop offset="1" stop-color="#1F854B"/>
</linearGradient>
<linearGradient id="paint1_linear_276_112" x1="98.5" y1="580" x2="212.5" y2="-108" gradientUnits="userSpaceOnUse">
<stop stop-color="#1F854B"/>
<stop offset="1" stop-color="#005CBA"/>
</linearGradient>
<clipPath id="clip0_276_112">
<rect width="512" height="512" fill="white"/>
</clipPath>
</defs>
</svg>
