<svg width="94" height="94" viewBox="0 0 94 94" fill="none" xmlns="http://www.w3.org/2000/svg">
<g clip-path="url(#clip0_280_139)">
<path d="M46.547 75.5208C46.547 77.1598 45.6 78.6488 44.118 79.3438C43.545 79.6148 42.931 79.7458 42.321 79.7458C41.355 79.7458 40.398 79.4138 39.625 78.7728L16.527 59.6328H4.225C1.892 59.6348 0 57.7418 0 55.4088V38.5758C0 36.2418 1.892 34.3498 4.225 34.3498H16.528L39.626 15.2098C40.888 14.1638 42.638 13.9408 44.119 14.6408C45.6 15.3358 46.548 16.8258 46.548 18.4638L46.547 75.5208ZM62.784 68.9188C62.681 68.9258 62.582 68.9298 62.48 68.9298C61.364 68.9298 60.288 68.4888 59.493 67.6928L58.928 67.1258C57.446 65.6468 57.272 63.3038 58.52 61.6218C61.684 57.3558 63.354 52.2988 63.354 46.9938C63.354 41.2878 61.458 35.9358 57.87 31.5158C56.504 29.8358 56.63 27.3958 58.161 25.8658L58.725 25.3008C59.569 24.4568 60.7 23.9968 61.924 24.0698C63.116 24.1298 64.229 24.6908 64.985 25.6148C69.962 31.7048 72.591 39.0988 72.591 46.9948C72.591 54.3488 70.266 61.3488 65.866 67.2348C65.131 68.2158 64.007 68.8318 62.784 68.9188ZM80.252 81.9758C79.488 82.8788 78.383 83.4208 77.2 83.4708C77.142 83.4728 77.083 83.4748 77.023 83.4748C75.904 83.4748 74.83 83.0328 74.035 82.2378L73.48 81.6828C71.929 80.1328 71.824 77.6538 73.234 75.9758C80.048 67.8718 83.802 57.5798 83.802 46.9938C83.802 35.9828 79.783 25.3828 72.488 17.1468C71.009 15.4748 71.084 12.9438 72.658 11.3638L73.212 10.8088C74.034 9.98277 75.102 9.52777 76.327 9.56677C77.49 9.59977 78.59 10.1138 79.363 10.9838C88.181 20.9118 93.038 33.7018 93.038 46.9938C93.04 59.7828 88.499 72.2068 80.252 81.9758Z" fill="url(#paint0_linear_280_139)"/>
</g>
<defs>
<linearGradient id="paint0_linear_280_139" x1="46.519" y1="9.56445" x2="46.519" y2="83.4748" gradientUnits="userSpaceOnUse">
<stop stop-color="#005CBA"/>
<stop offset="1" stop-color="#1F854B"/>
</linearGradient>
<clipPath id="clip0_280_139">
<rect width="93.038" height="93.038" fill="white"/>
</clipPath>
</defs>
</svg>
