<svg width="8" height="4" viewBox="0 0 8 4" fill="none" xmlns="http://www.w3.org/2000/svg">
<path fill-rule="evenodd" clip-rule="evenodd" d="M0.855589 0.352513C0.878554 0.328763 0.905835 0.30992 0.935869 0.297063C0.965904 0.284206 0.998103 0.277588 1.03062 0.277588C1.06314 0.277588 1.09534 0.284206 1.12537 0.297063C1.15541 0.30992 1.18269 0.328763 1.20565 0.352513L3.99726 3.23285L6.78886 0.352513C6.83528 0.304625 6.89824 0.277721 6.96389 0.277721C7.02954 0.277721 7.0925 0.304625 7.13892 0.352513C7.18534 0.400401 7.21142 0.465352 7.21142 0.533076C7.21142 0.600801 7.18534 0.665751 7.13892 0.713639L4.17229 3.77403C4.14932 3.79778 4.12204 3.81662 4.09201 3.82948C4.06197 3.84234 4.02977 3.84896 3.99726 3.84896C3.96474 3.84896 3.93254 3.84234 3.90251 3.82948C3.87247 3.81662 3.84519 3.79778 3.82222 3.77403L0.855589 0.713639C0.832566 0.689949 0.8143 0.661806 0.801837 0.630822C0.789374 0.599838 0.782959 0.566622 0.782959 0.533076C0.782959 0.499531 0.789374 0.466315 0.801837 0.435331C0.8143 0.404347 0.832566 0.376203 0.855589 0.352513Z" fill="#1C1A1A"/>
</svg>
