<svg width="14" height="14" viewBox="0 0 14 14" fill="none" xmlns="http://www.w3.org/2000/svg">
<path d="M8.86303 0.255406C8.49301 0.146805 8.11295 0.0759854 7.72865 0.0440324C6.87838 -0.0559697 6.01675 0.0110453 5.19216 0.241315L5.14284 0.255406C3.66449 0.661349 2.36044 1.54172 1.43125 2.76111C0.502065 3.9805 -0.000799605 5.47138 9.54385e-07 7.00445C0.000801513 8.53752 0.505223 10.0279 1.43568 11.2463C2.36615 12.4647 3.67112 13.3437 5.14989 13.7481C5.69124 13.9006 6.25031 13.9812 6.8127 13.9877C6.87543 13.9991 6.9392 14.0038 7.00293 14.0018C7.62935 14.003 8.25293 13.9176 8.85598 13.7481C10.3335 13.3423 11.6369 12.4628 12.5662 11.2445C13.4955 10.0263 13.9992 8.53666 14 7.00444C14.0008 5.47223 13.4986 3.98211 12.5706 2.76288C11.6426 1.54366 10.3401 0.662748 8.86303 0.255406ZM8.67279 0.931803C9.58504 1.18433 10.4287 1.63914 11.141 2.26245C11.8534 2.88576 12.4161 3.66156 12.7875 4.53221H9.78603C9.42777 3.14894 8.76857 1.86181 7.85548 0.762704C8.13161 0.799423 8.40475 0.855935 8.67279 0.931803ZM7.00293 0.868391C7.96553 1.91104 8.66806 3.16644 9.05326 4.53221H4.93851C5.32208 3.16314 6.03025 1.9068 7.00293 0.8698V0.868391ZM9.22941 5.23679C9.45487 6.40264 9.45487 7.60089 9.22941 8.76673H4.77646C4.65721 8.18722 4.59818 7.59693 4.60032 7.00528C4.59853 6.41132 4.65756 5.81873 4.77646 5.23679H9.22941ZM5.28376 0.945895L5.33308 0.931803C5.60174 0.860222 5.87475 0.806091 6.15039 0.76975C5.23236 1.86447 4.57038 3.15039 4.2128 4.53362H1.22186C1.59175 3.67263 2.14788 2.90432 2.85022 2.28397C3.55257 1.66361 4.38368 1.20663 5.28376 0.945895ZM0.703989 7.00528C0.704104 6.40622 0.791934 5.8104 0.964683 5.23679H4.05779C3.95052 5.82019 3.89628 6.4121 3.89574 7.00528C3.89595 7.59615 3.9502 8.18575 4.05779 8.76673H0.964683C0.791426 8.19565 0.703578 7.60207 0.703989 7.00528ZM5.33308 13.0717C4.41988 12.8212 3.57528 12.3671 2.86264 11.7436C2.15 11.12 1.58784 10.3432 1.21833 9.47131H4.20575C4.56705 10.8576 5.23389 12.1456 6.15744 13.2408C5.87887 13.2048 5.60333 13.1483 5.33308 13.0717ZM4.93851 9.47131H9.05326C8.67265 10.8411 7.96961 12.0998 7.00293 13.1422C6.03629 12.0975 5.32908 10.84 4.93851 9.47131ZM8.67279 13.0717C8.4011 13.1423 8.12595 13.1987 7.84843 13.2408C8.76362 12.1421 9.4252 10.855 9.78603 9.47131H12.7875C12.417 10.3425 11.8545 11.1188 11.142 11.7422C10.4295 12.3656 9.58545 12.8201 8.67279 13.0717ZM9.94103 8.76673C10.1595 7.60022 10.1595 6.4033 9.94103 5.23679H13.0341C13.2103 5.80964 13.2982 6.40597 13.2948 7.00528C13.2965 7.60166 13.2111 8.19508 13.0412 8.76673H9.94103Z" fill="url(#paint0_linear_751_4192)"/>
<defs>
<linearGradient id="paint0_linear_751_4192" x1="7" y1="-0.000976563" x2="7" y2="14.0022" gradientUnits="userSpaceOnUse">
<stop stop-color="#025EB8"/>
<stop offset="1" stop-color="#1D8256"/>
</linearGradient>
</defs>
</svg>
