<svg id="Group_846" data-name="Group 846" xmlns="http://www.w3.org/2000/svg" width="187.904" height="56.003" viewBox="0 0 187.904 56.003">
  <path id="Path_1019" data-name="Path 1019" d="M180.641,56H7.264A7.192,7.192,0,0,1,0,48.88V7.114A7.192,7.192,0,0,1,7.264,0H180.641A7.192,7.192,0,0,1,187.9,7.114V48.88A7.192,7.192,0,0,1,180.641,56" transform="translate(0 0.004)"/>
  <path id="Path_1020" data-name="Path 1020" d="M414.523,223.976h2.622v5.947a8.33,8.33,0,0,1-2.686,1.407,10.309,10.309,0,0,1-3.155.49,8.508,8.508,0,0,1-4.114-.991,7.361,7.361,0,0,1-2.878-2.739,7.967,7.967,0,0,1,0-7.887,7.346,7.346,0,0,1,2.888-2.739,8.615,8.615,0,0,1,4.146-.991,9.055,9.055,0,0,1,3.411.618,6.694,6.694,0,0,1,2.579,1.812l-1.748,1.705a5.607,5.607,0,0,0-4.114-1.705,5.815,5.815,0,0,0-2.8.661,4.816,4.816,0,0,0-1.918,1.855,5.335,5.335,0,0,0-.693,2.729,5.251,5.251,0,0,0,.693,2.686,4.961,4.961,0,0,0,1.918,1.876,5.619,5.619,0,0,0,2.782.682,6,6,0,0,0,3.07-.767Z" transform="translate(-352.939 -190.196)" fill="#fff"/>
  <path id="Path_1021" data-name="Path 1021" d="M536.964,256.406a5.436,5.436,0,0,1-2.164-2.078,6.214,6.214,0,0,1,0-6.022,5.463,5.463,0,0,1,2.164-2.068,6.908,6.908,0,0,1,6.246,0,5.467,5.467,0,0,1,2.164,2.068,6.215,6.215,0,0,1,0,6.022,5.441,5.441,0,0,1-2.164,2.078,6.909,6.909,0,0,1-6.246,0m5.542-2.515a3.947,3.947,0,0,0,0-5.159,3.256,3.256,0,0,0-2.43-.981,3.221,3.221,0,0,0-2.419.981,3.981,3.981,0,0,0,0,5.159,3.22,3.22,0,0,0,2.419.981,3.255,3.255,0,0,0,2.43-.981" transform="translate(-467.373 -215.624)" fill="#fff"/>
  <path id="Path_1022" data-name="Path 1022" d="M647.064,256.406a5.436,5.436,0,0,1-2.164-2.078,6.215,6.215,0,0,1,0-6.022,5.462,5.462,0,0,1,2.164-2.068,6.908,6.908,0,0,1,6.246,0,5.467,5.467,0,0,1,2.164,2.068,6.214,6.214,0,0,1,0,6.022,5.44,5.44,0,0,1-2.164,2.078,6.909,6.909,0,0,1-6.246,0m5.542-2.515a3.948,3.948,0,0,0,0-5.159,3.257,3.257,0,0,0-2.43-.981,3.22,3.22,0,0,0-2.419.981,3.981,3.981,0,0,0,0,5.159,3.219,3.219,0,0,0,2.419.981,3.256,3.256,0,0,0,2.43-.981" transform="translate(-563.733 -215.624)" fill="#fff"/>
  <path id="Path_1023" data-name="Path 1023" d="M766.458,245.619v9.656q0,6.011-6.139,6.011a11.4,11.4,0,0,1-3.112-.416,6.606,6.606,0,0,1-2.43-1.2l1.194-2a5.7,5.7,0,0,0,1.887.991,7.4,7.4,0,0,0,2.313.373,3.819,3.819,0,0,0,2.75-.853,3.485,3.485,0,0,0,.874-2.6v-.6a4.378,4.378,0,0,1-1.663,1.13,5.86,5.86,0,0,1-2.153.384,6.174,6.174,0,0,1-2.931-.693,5.2,5.2,0,0,1-2.068-1.95,5.83,5.83,0,0,1,0-5.745,5.154,5.154,0,0,1,2.068-1.929,6.255,6.255,0,0,1,2.931-.682,6.012,6.012,0,0,1,2.249.405,4.154,4.154,0,0,1,1.695,1.236v-1.513Zm-3.592,7.706a3.075,3.075,0,0,0,.97-2.355,3.017,3.017,0,0,0-.97-2.324,3.922,3.922,0,0,0-4.988,0,3.017,3.017,0,0,0-.97,2.324,3.075,3.075,0,0,0,.97,2.355,3.886,3.886,0,0,0,4.988,0" transform="translate(-660.091 -215.702)" fill="#fff"/>
  <rect id="Rectangle_574" data-name="Rectangle 574" width="2.665" height="15.817" transform="translate(109.856 25.604)" fill="#fff"/>
  <path id="Path_1024" data-name="Path 1024" d="M933.612,252.164h-8.932a3.1,3.1,0,0,0,1.226,1.993,4.018,4.018,0,0,0,2.462.735,4.149,4.149,0,0,0,3.091-1.236l1.428,1.641a4.807,4.807,0,0,1-1.94,1.385,7.686,7.686,0,0,1-5.947-.277,5.369,5.369,0,0,1-2.206-2.078,5.866,5.866,0,0,1-.778-3.016,5.957,5.957,0,0,1,.756-3,5.372,5.372,0,0,1,2.1-2.078,6.127,6.127,0,0,1,3.027-.746,5.975,5.975,0,0,1,2.974.735,5.211,5.211,0,0,1,2.046,2.068,6.271,6.271,0,0,1,.735,3.08q0,.278-.043.789m-7.876-3.784a3.185,3.185,0,0,0-1.077,2.014h6.459a3.143,3.143,0,0,0-1.045-2,3.178,3.178,0,0,0-2.174-.767,3.215,3.215,0,0,0-2.164.757" transform="translate(-806.944 -215.624)" fill="#fff"/>
  <path id="Path_1025" data-name="Path 1025" d="M1094.379,218.819a4.915,4.915,0,0,1,2.206,1.833,5.6,5.6,0,0,1,0,5.66,4.89,4.89,0,0,1-2.206,1.844,8.264,8.264,0,0,1-3.379.639h-3.368V233.1h-2.771V218.179H1091a8.261,8.261,0,0,1,3.379.64m-.757,6.864a3.039,3.039,0,0,0,0-4.391,4.257,4.257,0,0,0-2.75-.768h-3.24v5.926h3.24a4.257,4.257,0,0,0,2.75-.767" transform="translate(-949.465 -191.688)" fill="#fff"/>
  <rect id="Rectangle_575" data-name="Rectangle 575" width="2.665" height="15.817" transform="translate(150.593 25.604)" fill="#fff"/>
  <path id="Path_1026" data-name="Path 1026" d="M1258.59,246.7a4.656,4.656,0,0,1,1.332,3.635V257h-2.515v-1.386a3.1,3.1,0,0,1-1.4,1.141,5.461,5.461,0,0,1-2.185.394,5.355,5.355,0,0,1-2.238-.437,3.455,3.455,0,0,1-1.481-1.215,3.079,3.079,0,0,1-.522-1.759,3.013,3.013,0,0,1,1.141-2.462,5.662,5.662,0,0,1,3.592-.927h2.942v-.171a2.333,2.333,0,0,0-.714-1.833,3.089,3.089,0,0,0-2.121-.639,6.126,6.126,0,0,0-1.887.3,4.646,4.646,0,0,0-1.567.831l-1.044-1.94a6.472,6.472,0,0,1,2.153-1.044,9.586,9.586,0,0,1,2.665-.362,5.552,5.552,0,0,1,3.847,1.2m-2.43,8.058a2.494,2.494,0,0,0,1.1-1.311v-1.322h-2.75q-2.3,0-2.3,1.513a1.358,1.358,0,0,0,.575,1.151,2.637,2.637,0,0,0,1.6.426,3.439,3.439,0,0,0,1.78-.458" transform="translate(-1093.641 -215.624)" fill="#fff"/>
  <path id="Path_1027" data-name="Path 1027" d="M1353.847,246.516l-5.33,12.3a5.728,5.728,0,0,1-1.812,2.611,4.341,4.341,0,0,1-2.579.757,5.3,5.3,0,0,1-1.684-.277,3.731,3.731,0,0,1-1.364-.767l1.066-1.961a2.9,2.9,0,0,0,.906.576,2.77,2.77,0,0,0,1.055.213,1.816,1.816,0,0,0,1.162-.362,3.207,3.207,0,0,0,.842-1.215l.192-.448-4.967-11.426h2.771l3.581,8.42,3.6-8.42Z" transform="translate(-1173.71 -216.6)" fill="#fff"/>
  <path id="Path_1028" data-name="Path 1028" d="M270.779,194.106l-7.163-4.134-5.891,5.695,5.384,5.2,7.67-4.427a1.351,1.351,0,0,0,0-2.339" transform="translate(-225.56 -166.849)" fill="#ffd109"/>
  <path id="Path_1029" data-name="Path 1029" d="M118.867,90.426l-7.883-4.55L93.71,77.023l19.511,18.861Z" transform="translate(-82.008 -67.699)" fill="#06ef79"/>
  <path id="Path_1030" data-name="Path 1030" d="M96.006,261.676l17.017-9.375,7.346-4.24-5.139-4.968Z" transform="translate(-84.017 -213.907)" fill="#f93646"/>
  <path id="Path_1031" data-name="Path 1031" d="M84.35,83.134l-.018,38.09,19.711-19.054Z" transform="translate(-73.8 -73.438)" fill="#05d5fb"/>
  <path id="Path_1032" data-name="Path 1032" d="M411.546,86.782a3.685,3.685,0,0,1-1.683-.393,4.451,4.451,0,0,1-1.36-1.057,5,5,0,0,1-.9-1.5,4.722,4.722,0,0,1-.322-1.721,4.852,4.852,0,0,1,1.218-3.237,4.178,4.178,0,0,1,1.354-1.012,3.928,3.928,0,0,1,1.7-.368,3.989,3.989,0,0,1,2.192.554,3.564,3.564,0,0,1,1.3,1.444l-.89.619a2.68,2.68,0,0,0-1.1-1.186,3.107,3.107,0,0,0-1.535-.387,2.687,2.687,0,0,0-1.264.3,3.03,3.03,0,0,0-.974.806,3.688,3.688,0,0,0-.619,1.154,4.249,4.249,0,0,0-.213,1.341,3.993,3.993,0,0,0,.239,1.386,3.567,3.567,0,0,0,.677,1.148,3.251,3.251,0,0,0,1.019.78,2.808,2.808,0,0,0,1.251.284,3,3,0,0,0,1.5-.4,4.534,4.534,0,0,0,1.341-1.225v1.2a3.724,3.724,0,0,1-2.927,1.47m2.785-3.752h-1.973v-.877h2.953v4.565h-.98Z" transform="translate(-356.447 -68.056)" fill="#fff"/>
  <path id="Path_1033" data-name="Path 1033" d="M491.969,86.139V87.17h-6.215V78.015h6.1v1.031h-4.939v2.966h4.294v.967h-4.294v3.159Z" transform="translate(-425.128 -68.51)" fill="#fff"/>
  <path id="Path_1034" data-name="Path 1034" d="M548.682,79.046h-3.159V87.17h-1.161V79.046H541.2V78.014h7.479Z" transform="translate(-473.658 -68.509)" fill="#fff"/>
  <rect id="Rectangle_576" data-name="Rectangle 576" width="1.16" height="9.155" transform="translate(79.21 9.505)" fill="#fff"/>
  <path id="Path_1035" data-name="Path 1035" d="M662.66,80.155V87.17H661.5V78.015h.98l5.6,7.157V78.028h1.161V87.17h-1.058Z" transform="translate(-578.94 -68.51)" fill="#fff"/>
  <path id="Path_1036" data-name="Path 1036" d="M766.689,86.783a3.919,3.919,0,0,1-1.754-.387,4.268,4.268,0,0,1-1.36-1.051,4.93,4.93,0,0,1-1.193-3.2,4.713,4.713,0,0,1,.329-1.747,4.87,4.87,0,0,1,.916-1.483A4.426,4.426,0,0,1,765,77.879a3.889,3.889,0,0,1,1.715-.38,3.816,3.816,0,0,1,1.753.4,4.324,4.324,0,0,1,1.354,1.07,5.048,5.048,0,0,1,.877,1.5,4.819,4.819,0,0,1-.922,4.919,4.341,4.341,0,0,1-1.374,1.025,3.94,3.94,0,0,1-1.715.374m-3.133-4.642a4.087,4.087,0,0,0,.226,1.348,3.715,3.715,0,0,0,.638,1.154,3.088,3.088,0,0,0,.993.8,2.79,2.79,0,0,0,1.29.3,2.748,2.748,0,0,0,1.315-.309A3.1,3.1,0,0,0,769,84.6a3.768,3.768,0,0,0,.619-1.161,4.128,4.128,0,0,0,.213-1.3,4.038,4.038,0,0,0-.225-1.341,3.763,3.763,0,0,0-.645-1.154,3.071,3.071,0,0,0-.993-.8,2.966,2.966,0,0,0-2.585.013,3.031,3.031,0,0,0-.987.819,3.9,3.9,0,0,0-.625,1.154,3.994,3.994,0,0,0-.219,1.309" transform="translate(-667.232 -68.057)" fill="#fff"/>
  <path id="Path_1037" data-name="Path 1037" d="M845.529,80.155V87.17h-1.161V78.015h.98l5.6,7.157V78.028h1.16V87.17h-1.057Z" transform="translate(-738.986 -68.51)" fill="#fff"/>
</svg>
